<svg xmlns="http://www.w3.org/2000/svg" viewBox="0 0 120.76 78.81"><defs><style>.cls-1{fill:#a08d3e;}</style></defs><title>header_tel</title><g id="レイヤー_2" data-name="レイヤー 2"><g id="編集モード"><path class="cls-1" d="M75.84,45.45c0,10.44,8.22,15.5,14.84,15.5a15,15,0,0,0,14.85-15.5c0-8.11-8-14.59-14.85-18.46C83.87,30.86,75.84,37.34,75.84,45.45Z"/><path class="cls-1" d="M15.49,45.62c0,10.45,8.23,15.51,14.85,15.51s14.85-5.06,14.85-15.51c0-8.11-8-14.58-14.85-18.46C23.52,31,15.49,37.51,15.49,45.62Z"/><path class="cls-1" d="M0,0V78.81H120.76V0ZM120.74,19.16c-7.25,0-16.07,1.36-23,4.36,7.46,5,14.68,12.55,14.68,22.09A22.43,22.43,0,0,1,90.21,67.86,22.12,22.12,0,0,1,68.35,45.61c0-9.54,6.86-17.1,14.32-22.09a59.23,59.23,0,0,0-44.61,0c7.46,5,14.32,12.55,14.32,22.09A22.12,22.12,0,0,1,30.51,67.86c-11.65,0-22.39-9.63-22.39-22.25,0-9.54,7.38-17.1,14.84-22.09-6.91-3-15.71-4.36-23-4.36v-6.9c12.27,0,23.13,3.06,30.51,6.9a64.94,64.94,0,0,1,29.85-6.9,64.94,64.94,0,0,1,29.85,6.9c7.39-3.84,18.26-6.9,30.53-6.9Z"/></g></g></svg>