<svg xmlns="http://www.w3.org/2000/svg" viewBox="0 0 363.48 379.36"><defs><style>.cls-1{fill:#fff;}</style></defs><title>アセット 1</title><g id="レイヤー_2" data-name="レイヤー 2"><g id="レイヤー_1-2" data-name="レイヤー 1"><path class="cls-1" d="M286.89,175.32a12.63,12.63,0,0,0,2.78.29,13.51,13.51,0,0,0,13.2-10.73,93.92,93.92,0,0,0-36-95.2,13.5,13.5,0,1,0-16,21.72,66.77,66.77,0,0,1,22.82,30.16,67.51,67.51,0,0,1,2.82,37.78A13.5,13.5,0,0,0,286.89,175.32Z"/><path class="cls-1" d="M360.54,183.18A169.82,169.82,0,0,0,298,17.85a13.5,13.5,0,1,0-16.58,21.3,142.85,142.85,0,0,1,52.56,139,13.49,13.49,0,0,0,10.75,15.77,13.71,13.71,0,0,0,2.53.24A13.51,13.51,0,0,0,360.54,183.18Z"/><path class="cls-1" d="M16.55,202.19a432.81,432.81,0,0,0,27.72,66.44,374.32,374.32,0,0,0,29.88,48.61c10.37,14.16,22,27.11,36.13,37.69,15.53,11.65,32,21.39,51.7,24.16,7.17,1,18.28-.85,25.38-3.61-.37-1-.64-1.94-1-2.81-1.3-3.14-2.64-6.28-4-9.42q-10-23.78-20.06-47.56C156.91,302.81,151.42,290,146.12,277a4.59,4.59,0,0,0-4.32-3.31c-13-1.5-23.11-7.78-29.32-19.45-4.14-7.78-8.07-15.71-11.44-23.84-8.53-20.57-16.69-41.29-25-62-2.19-5.47-3.67-11.1-3.28-17.08A39.25,39.25,0,0,1,81.48,129a4.19,4.19,0,0,0,.73-3.46C77.52,114,72.67,102.63,67.85,91.2Q57.05,65.6,46.27,40c-1.94-4.66-3.67-9.4-5.55-14.25C33.18,29.16,24,35.85,19.77,41.87c-2.79,4-5.21,8.26-7.79,12.4Q9.7,59.86,7.43,65.46A17.25,17.25,0,0,1,7,67.74c-7.72,24.67-8.66,49.79-4.87,75.18A368.43,368.43,0,0,0,16.55,202.19Z"/><path class="cls-1" d="M105.56,114c9.89-4.22,23.85-10.07,33.76-14.23,7.86-3.31,10.29-9.14,7-16.94C137.13,60.88,128,39,118.68,17.07c-2.3-5.4-3.72-11.34-8.4-15.49L106.39,0c-3,.56-6.1.69-8.87,1.76C90,4.66,78.5,9.69,71,12.79c-4.58,1.89-9.21,3.66-13.46,5.34l41.68,99C101.19,116.11,103.32,114.92,105.56,114Z"/><path class="cls-1" d="M203.8,252.91c-6.05,2.53-16.17,6.65-22.13,9.36s-12.06,5.86-18,8.76l40.89,97.05a7.7,7.7,0,0,0,1.09-.3c12.54-5.29,29.16-12.18,41.64-17.62,5.74-2.5,7.82-8.49,5.49-14.6-.88-2.28-1.88-4.51-2.83-6.77q-14.53-34.53-29.1-69.05C217.59,252,211.55,249.67,203.8,252.91Z"/></g></g></svg>