<svg xmlns="http://www.w3.org/2000/svg" width="17" height="12.75" viewBox="0 0 17 12.75">
  <path id="メール" d="M15.407,0H1.594A1.594,1.594,0,0,0,0,1.594v9.563A1.594,1.594,0,0,0,1.594,12.75H15.407A1.594,1.594,0,0,0,17,11.157V1.594A1.594,1.594,0,0,0,15.407,0Zm0,1.594V2.949c-.744.608-1.932,1.551-4.469,3.536-.558.438-1.667,1.5-2.437,1.484S6.621,6.923,6.063,6.485C3.526,4.5,2.338,3.556,1.594,2.949V1.594ZM1.594,11.157V4.994c.76.608,1.84,1.458,3.483,2.743.727.571,2,1.833,3.423,1.826s2.673-1.235,3.423-1.823c1.644-1.288,2.723-2.138,3.483-2.746v6.163Z" fill="#bebb9b"/>
</svg>
