<svg xmlns="http://www.w3.org/2000/svg" width="17" height="14.167" viewBox="0 0 17 14.167">
  <path id="パス_770" data-name="パス 770" d="M15.406,0H1.594A1.557,1.557,0,0,0,0,1.518V12.649a1.557,1.557,0,0,0,1.594,1.518H15.406A1.557,1.557,0,0,0,17,12.649V1.518A1.557,1.557,0,0,0,15.406,0Zm-.2,12.649H1.793a.2.2,0,0,1-.2-.19V1.708a.2.2,0,0,1,.2-.19H15.207a.2.2,0,0,1,.2.19V12.459a.2.2,0,0,1-.2.19ZM13.813,9.74V10.5a.389.389,0,0,1-.4.379H6.773a.389.389,0,0,1-.4-.379V9.74a.389.389,0,0,1,.4-.379h6.641A.389.389,0,0,1,13.813,9.74Zm0-3.036v.759a.389.389,0,0,1-.4.379H6.773a.389.389,0,0,1-.4-.379V6.7a.389.389,0,0,1,.4-.379h6.641a.389.389,0,0,1,.4.379Zm0-3.036v.759a.389.389,0,0,1-.4.379H6.773a.389.389,0,0,1-.4-.379V3.668a.389.389,0,0,1,.4-.379h6.641A.389.389,0,0,1,13.813,3.668Zm-8.367.379a1.168,1.168,0,0,1-1.2,1.138,1.168,1.168,0,0,1-1.2-1.138,1.168,1.168,0,0,1,1.2-1.138,1.168,1.168,0,0,1,1.2,1.138Zm0,3.036a1.168,1.168,0,0,1-1.2,1.138,1.14,1.14,0,1,1,0-2.277,1.168,1.168,0,0,1,1.2,1.138Zm0,3.036a1.168,1.168,0,0,1-1.2,1.138,1.14,1.14,0,1,1,0-2.277,1.168,1.168,0,0,1,1.2,1.138Z" fill="#beba9b"/>
</svg>
