<svg xmlns="http://www.w3.org/2000/svg" width="24.004" height="20" viewBox="0 0 24.004 20">
  <g id="グループ_1124" data-name="グループ 1124" transform="translate(-113.6 -136.4)">
    <path id="パス_661" data-name="パス 661" d="M128.083,147.108a4.733,4.733,0,0,0-3.326-1.5,5.376,5.376,0,0,0,2.763-1.522,3.984,3.984,0,0,0,.862-2.7A4.839,4.839,0,0,0,127.8,139a4.294,4.294,0,0,0-1.689-1.637,7.247,7.247,0,0,0-2.305-.757,33.942,33.942,0,0,0-4.725-.211H113.6v19.991h5.649a36.745,36.745,0,0,0,4.91-.229,8,8,0,0,0,2.516-.783A4.619,4.619,0,0,0,128.6,153.5a5.733,5.733,0,0,0,.678-2.824A5.121,5.121,0,0,0,128.083,147.108Zm-9.415-6.282h1.17a5.493,5.493,0,0,1,2.728.458,1.752,1.752,0,0,1,.7,1.584,1.624,1.624,0,0,1-.748,1.531,5.884,5.884,0,0,1-2.763.44h-1.082Zm4.646,11.465a5.608,5.608,0,0,1-2.736.484h-1.909v-4.355h1.989a5.175,5.175,0,0,1,2.719.5,1.987,1.987,0,0,1,.739,1.76,1.641,1.641,0,0,1-.81,1.619Z" transform="translate(0)" fill="#6aadbf"/>
    <path id="パス_662" data-name="パス 662" d="M331.334,306.1a2.534,2.534,0,1,0,2.534,2.534A2.534,2.534,0,0,0,331.334,306.1Z" transform="translate(-196.265 -154.768)" fill="#6aadbf"/>
    <rect id="長方形_167" data-name="長方形 167" width="4.399" height="13.332" transform="translate(132.87 136.4)" fill="#6aadbf"/>
  </g>
</svg>
