<svg xmlns="http://www.w3.org/2000/svg" width="24" height="22.868" viewBox="0 0 24 22.868">
  <g id="グループ_1125" data-name="グループ 1125" transform="translate(-3963.842 -886.019)">
    <g id="TYPE_A" data-name="TYPE A" transform="translate(3963.842 886.019)">
      <g id="グループ_92" data-name="グループ 92">
        <path id="パス_188" data-name="パス 188" d="M3991.727,900.4c0-5.37-5.383-9.739-12-9.739s-12,4.369-12,9.739c0,4.814,4.269,8.846,10.036,9.608.391.084.923.258,1.057.592a2.467,2.467,0,0,1,.039,1.085s-.141.847-.171,1.027c-.052.3-.241,1.187,1.039.647a38.754,38.754,0,0,0,9.429-6.968h0a8.664,8.664,0,0,0,2.572-5.991" transform="translate(-3967.727 -890.662)" fill="#6aadbf"/>
        <g id="グループ_91" data-name="グループ 91" transform="translate(3.772 7.097)">
          <path id="パス_189" data-name="パス 189" d="M3982.936,902.541h-.859a.238.238,0,0,0-.238.238v5.332a.238.238,0,0,0,.238.238h.859a.238.238,0,0,0,.239-.238v-5.332a.238.238,0,0,0-.239-.238" transform="translate(-3977.199 -902.541)" fill="#fff"/>
          <path id="パス_190" data-name="パス 190" d="M3990.212,902.541h-.858a.238.238,0,0,0-.239.238v3.168l-2.444-3.3-.018-.024h0l-.015-.015,0,0-.013-.01-.006,0-.012-.009-.007,0-.013-.007-.007,0-.014-.006-.008,0-.014,0-.008,0-.014,0-.01,0h-.892a.238.238,0,0,0-.238.238v5.332a.238.238,0,0,0,.238.238h.859a.238.238,0,0,0,.238-.238v-3.167l2.446,3.3a.249.249,0,0,0,.061.058l0,0,.015.009.007,0,.011.005.012,0,.007,0,.016.005h0a.222.222,0,0,0,.062.009h.858a.238.238,0,0,0,.238-.238v-5.332a.238.238,0,0,0-.238-.238" transform="translate(-3978.568 -902.541)" fill="#fff"/>
          <path id="パス_191" data-name="パス 191" d="M3977.94,907.013h-2.332v-4.234a.238.238,0,0,0-.239-.238h-.858a.238.238,0,0,0-.238.238v5.332h0a.233.233,0,0,0,.067.164l0,0,0,0a.235.235,0,0,0,.164.067h3.429a.238.238,0,0,0,.238-.239v-.859a.239.239,0,0,0-.238-.239" transform="translate(-3974.273 -902.541)" fill="#fff"/>
          <path id="パス_192" data-name="パス 192" d="M3998.678,903.876a.238.238,0,0,0,.238-.239v-.858a.238.238,0,0,0-.238-.239h-3.429a.239.239,0,0,0-.166.067l0,0,0,0a.238.238,0,0,0-.066.164h0v5.331h0a.237.237,0,0,0,.066.164l0,0,0,0a.237.237,0,0,0,.165.067h3.429a.238.238,0,0,0,.238-.239v-.859a.238.238,0,0,0-.238-.238h-2.332v-.9h2.332a.238.238,0,0,0,.238-.239v-.858a.238.238,0,0,0-.238-.239h-2.332v-.9Z" transform="translate(-3982.293 -902.541)" fill="#fff"/>
        </g>
      </g>
    </g>
  </g>
</svg>
