<svg xmlns="http://www.w3.org/2000/svg" width="44" height="33" viewBox="0 0 44 33">
  <defs>
    <style>
      .cls-1 {
        fill: #fff;
        fill-rule: evenodd;
      }
    </style>
  </defs>
  <path id="シェイプ_3" data-name="シェイプ 3" class="cls-1" d="M43.983,8.7c-0.022-.961-0.223-5.09-2.1-5.854C38.015,1.268,28.46.012,22,.012S5.978,1.268,2.111,2.843c-1.88.766-2.08,4.9-2.1,5.857a2.789,2.789,0,0,0,.016.8l0.368,1.96a1.869,1.869,0,0,0,2.18,1.566l8.479-1.746a1.977,1.977,0,0,0,1.473-2.319L12.084,6.543c0.782-.116,1.567-0.227,2.343-0.327l-0.253,3.917S1.527,17.3,1.527,19.97V32.99H42.465V19.97c0-2.579-12.646-9.836-12.646-9.836L29.566,6.216c0.777,0.1,1.561.211,2.343,0.327l-0.44,2.419a1.977,1.977,0,0,0,1.472,2.319l8.479,1.746a1.869,1.869,0,0,0,2.18-1.566L43.967,9.5A2.8,2.8,0,0,0,43.983,8.7ZM22,5.616c0.786,0,3.8.15,4.694,0.271,0-.018-0.292,3.868-0.3,3.857H17.6l-0.272-3.86C19.034,5.716,20.631,5.616,22,5.616ZM22,27.65A5.849,5.849,0,1,1,27.909,21.8,5.881,5.881,0,0,1,22,27.65Z"/>
</svg>
