<svg xmlns="http://www.w3.org/2000/svg" width="203.22" height="22.875" viewBox="0 0 203.22 22.875">
  <defs>
    <style>
      .cls-1 {
        fill: #fff;
        fill-rule: evenodd;
      }
    </style>
  </defs>
  <path id="coomon_tel_ikebukuro.svg" class="cls-1" d="M1080.55,57.33c0,2.18-1.28,3.443-3.18,3.443s-3.18-1.264-3.18-3.443V47.79c0-2.18,1.27-3.443,3.18-3.443s3.18,1.263,3.18,3.443v9.54Zm-9.61.19a6.425,6.425,0,1,0,12.85,0V47.6a6.425,6.425,0,1,0-12.85,0v9.919Zm22.04-3.885h1.37a3.571,3.571,0,0,1,.06,7.139c-1.84,0-2.76-1.011-3.37-2.559h-3.24A6.428,6.428,0,0,0,1094.22,64a6.624,6.624,0,0,0,6.87-6.887,5.648,5.648,0,0,0-2.67-4.928,5.151,5.151,0,0,0,2.42-4.644,6.466,6.466,0,0,0-12.91-.474h3.24a3.152,3.152,0,0,1,3.12-2.717,3.263,3.263,0,0,1,3.3,3.254,3.174,3.174,0,0,1-3.49,3.191h-1.12v2.843Zm13.74,3.033h9.58V53.444h-9.58v3.222Zm15.65-3.286a8.4,8.4,0,0,0-.86,3.759,6.521,6.521,0,0,0,6.3,6.855c3.37,0,6.68-2.053,6.68-7.2,0-4.359-2.55-6.255-5.41-6.255a5.185,5.185,0,0,0-1.72.285h-0.06l4.77-9.509h-3.62Zm5.63,0c1.78,0,3.24,1.169,3.24,3.7,0,2.685-1.74,3.7-3.24,3.7-1.97,0-3.24-1.169-3.24-3.7S1126.22,53.381,1128,53.381Zm11.64-5.591h3.25V44.536h6.01l-7.67,19.27h3.63l7.66-19.27V41.314h-12.88V47.79Zm26.85,9.54c0,2.18-1.28,3.443-3.19,3.443s-3.18-1.264-3.18-3.443V47.79c0-2.18,1.28-3.443,3.18-3.443s3.19,1.263,3.19,3.443v9.54Zm-9.61.19a6.425,6.425,0,1,0,12.85,0V47.6a6.425,6.425,0,1,0-12.85,0v9.919Zm29.71-5.781a8.394,8.394,0,0,0,.85-3.759,6.514,6.514,0,0,0-6.29-6.855c-3.37,0-6.68,2.053-6.68,7.2,0,4.359,2.54,6.255,5.41,6.255a5.084,5.084,0,0,0,1.71-.285h0.07l-4.77,9.509h3.62Zm-5.63,0c-1.78,0-3.25-1.169-3.25-3.7,0-2.685,1.75-3.7,3.25-3.7,1.97,0,3.24,1.169,3.24,3.7S1182.74,51.738,1180.96,51.738Zm11.7,4.928h9.57V53.444h-9.57v3.222Zm24.46,0.663c0,2.18-1.27,3.443-3.18,3.443s-3.18-1.264-3.18-3.443V47.79c0-2.18,1.27-3.443,3.18-3.443s3.18,1.263,3.18,3.443v9.54Zm-9.61.19a6.425,6.425,0,1,0,12.85,0V47.6a6.425,6.425,0,1,0-12.85,0v9.919Zm29.71-5.781a8.4,8.4,0,0,0,.86-3.759,6.521,6.521,0,0,0-6.3-6.855c-3.37,0-6.68,2.053-6.68,7.2,0,4.359,2.55,6.255,5.41,6.255a5.185,5.185,0,0,0,1.72-.285h0.06l-4.77,9.509h3.63Zm-5.63,0c-1.78,0-3.24-1.169-3.24-3.7,0-2.685,1.75-3.7,3.24-3.7,1.97,0,3.24,1.169,3.24,3.7S1233.37,51.738,1231.59,51.738Zm14.41-4.17a3.245,3.245,0,1,1,3.24,3.222A3.107,3.107,0,0,1,1246,47.569Zm-3.66,9.667a6.9,6.9,0,0,0,13.8,0,5.875,5.875,0,0,0-2.67-5.054,5.882,5.882,0,0,0,2.26-4.549,6.49,6.49,0,1,0-12.98,0,5.913,5.913,0,0,0,2.26,4.549A5.875,5.875,0,0,0,1242.34,57.235Zm3.24-.032a3.661,3.661,0,1,1,3.66,3.57A3.614,3.614,0,0,1,1245.58,57.2Zm14.06,3.254h9.45v3.348h3.24V60.457h1.82V57.425h-1.82V50.949h-3.24v6.476h-5.92l7.67-16.111h-3.63l-7.57,16.111v3.033Z" transform="translate(-1070.94 -41.125)"/>
</svg>
