<svg xmlns="http://www.w3.org/2000/svg" width="202.437" height="22.875" viewBox="0 0 202.437 22.875">
  <defs>
    <style>
      .cls-1 {
        fill: #fff;
        fill-rule: evenodd;
      }
    </style>
  </defs>
  <path id="tel.svg" class="cls-1" d="M801.547,57.33c0,2.18-1.272,3.443-3.181,3.443s-3.18-1.264-3.18-3.443V47.79c0-2.18,1.272-3.443,3.18-3.443s3.181,1.263,3.181,3.443v9.54Zm-9.606.19a6.425,6.425,0,1,0,12.85,0V47.6a6.425,6.425,0,1,0-12.85,0v9.919Zm22.042-3.885h1.367a3.571,3.571,0,0,1,.064,7.139c-1.845,0-2.767-1.011-3.372-2.559H808.8A6.434,6.434,0,0,0,815.223,64a6.625,6.625,0,0,0,6.87-6.887,5.653,5.653,0,0,0-2.671-4.928,5.156,5.156,0,0,0,2.417-4.644,6.468,6.468,0,0,0-12.914-.474h3.245a3.15,3.15,0,0,1,3.117-2.717A3.268,3.268,0,0,1,818.6,47.6a3.18,3.18,0,0,1-3.5,3.191h-1.113v2.843Zm13.739,3.033H837.3V53.444h-9.574v3.222Zm15.649-3.286a8.361,8.361,0,0,0-.859,3.759A6.52,6.52,0,0,0,848.81,64c3.371,0,6.679-2.053,6.679-7.2,0-4.359-2.545-6.255-5.407-6.255a5.156,5.156,0,0,0-1.718.285H848.3l4.771-9.509h-3.626Zm5.629,0c1.782,0,3.245,1.169,3.245,3.7,0,2.685-1.75,3.7-3.245,3.7-1.972,0-3.244-1.169-3.244-3.7S847.219,53.381,849,53.381Zm23.282-1.642a8.361,8.361,0,0,0,.859-3.759,6.52,6.52,0,0,0-6.3-6.855c-3.371,0-6.679,2.053-6.679,7.2,0,4.359,2.544,6.255,5.407,6.255a5.161,5.161,0,0,0,1.718-.285h0.063l-4.771,9.509h3.626Zm-5.63,0c-1.781,0-3.244-1.169-3.244-3.7,0-2.685,1.749-3.7,3.244-3.7,1.972,0,3.245,1.169,3.245,3.7S868.434,51.738,866.652,51.738Zm20.833,5.591c0,2.18-1.272,3.443-3.181,3.443s-3.18-1.264-3.18-3.443V47.79c0-2.18,1.272-3.443,3.18-3.443s3.181,1.263,3.181,3.443v9.54Zm-9.605.19a6.425,6.425,0,1,0,12.849,0V47.6a6.425,6.425,0,1,0-12.849,0v9.919Zm20.832-9.951a3.245,3.245,0,1,1,3.244,3.222A3.108,3.108,0,0,1,898.712,47.569Zm-3.658,9.667a6.9,6.9,0,0,0,13.8,0,5.883,5.883,0,0,0-2.671-5.054,5.893,5.893,0,0,0,2.258-4.549,6.489,6.489,0,1,0-12.977,0,5.893,5.893,0,0,0,2.258,4.549A5.882,5.882,0,0,0,895.054,57.235ZM898.3,57.2a3.659,3.659,0,1,1,3.657,3.57A3.612,3.612,0,0,1,898.3,57.2Zm15.362-.537h9.573V53.444h-9.573v3.222Zm26.907-4.928a8.361,8.361,0,0,0,.859-3.759,6.52,6.52,0,0,0-6.3-6.855c-3.372,0-6.68,2.053-6.68,7.2,0,4.359,2.545,6.255,5.407,6.255a5.156,5.156,0,0,0,1.718-.285h0.063l-4.771,9.509h3.626Zm-5.629,0c-1.782,0-3.245-1.169-3.245-3.7,0-2.685,1.75-3.7,3.245-3.7,1.972,0,3.244,1.169,3.244,3.7S936.72,51.738,934.939,51.738Zm20.832,5.591c0,2.18-1.272,3.443-3.18,3.443s-3.181-1.264-3.181-3.443V47.79c0-2.18,1.272-3.443,3.181-3.443s3.18,1.263,3.18,3.443v9.54Zm-9.6.19a6.425,6.425,0,1,0,12.85,0V47.6a6.425,6.425,0,1,0-12.85,0v9.919Zm29.706-5.781a8.361,8.361,0,0,0,.859-3.759,6.52,6.52,0,0,0-6.3-6.855c-3.371,0-6.679,2.053-6.679,7.2,0,4.359,2.545,6.255,5.407,6.255a5.156,5.156,0,0,0,1.718-.285h0.063l-4.771,9.509H969.8Zm-5.629,0c-1.782,0-3.245-1.169-3.245-3.7,0-2.685,1.75-3.7,3.245-3.7,1.972,0,3.244,1.169,3.244,3.7S972.024,51.738,970.243,51.738Zm23.281,0a8.361,8.361,0,0,0,.859-3.759,6.52,6.52,0,0,0-6.3-6.855c-3.372,0-6.68,2.053-6.68,7.2,0,4.359,2.545,6.255,5.407,6.255a5.156,5.156,0,0,0,1.718-.285h0.063l-4.771,9.509h3.626Zm-5.629,0c-1.782,0-3.245-1.169-3.245-3.7,0-2.685,1.75-3.7,3.245-3.7,1.972,0,3.244,1.169,3.244,3.7S989.676,51.738,987.9,51.738Z" transform="translate(-791.938 -41.125)"/>
</svg>
