<svg xmlns="http://www.w3.org/2000/svg" width="23.38" height="17.281" viewBox="0 0 23.38 17.281">
  <defs>
    <style>
      .cls-1 {
        fill: #c1ac56;
        fill-rule: evenodd;
      }
    </style>
  </defs>
  <path id="common_tel_icon.svg" class="cls-1" d="M1059.35,47.231c-0.01-.5-0.12-2.668-1.11-3.069-2.06-.825-7.13-1.483-10.56-1.483s-8.51.657-10.56,1.483c-1,.4-1.1,2.568-1.11,3.071a1.474,1.474,0,0,0,0,.42l0.2,1.028a0.99,0.99,0,0,0,1.16.821l4.5-.915a1.042,1.042,0,0,0,.78-1.216l-0.23-1.268c0.41-.06.83-0.119,1.24-0.171l-0.14,2.053s-6.71,3.759-6.71,5.155v6.824h21.73V53.139c0-1.351-6.71-5.155-6.71-5.155l-0.13-2.053c0.41,0.052.83,0.111,1.24,0.171l-0.23,1.268a1.026,1.026,0,0,0,.78,1.216l4.5,0.915a1,1,0,0,0,1.16-.821l0.19-1.028A1.182,1.182,0,0,0,1059.35,47.231Zm-11.67-1.615c0.42,0,2.02.078,2.49,0.142,0-.009-0.16,2.027-0.16,2.022h-4.67l-0.14-2.023C1046.11,45.668,1046.95,45.616,1047.68,45.616Zm0,11.549a3.067,3.067,0,1,1,3.14-3.066A3.1,3.1,0,0,1,1047.68,57.165Z" transform="translate(-1036 -42.688)"/>
</svg>
